<mxfile host="app.diagrams.net" agent="Mozilla/5.0 (Windows NT 10.0; Win64; x64; rv:128.0) Gecko/20100101 Firefox/128.0" version="24.7.6">
  <diagram name="Page-1" id="e7e014a7-5840-1c2e-5031-d8a46d1fe8dd">
    <mxGraphModel dx="2954" dy="1113" grid="1" gridSize="10" guides="1" tooltips="1" connect="1" arrows="1" fold="1" page="1" pageScale="1" pageWidth="1169" pageHeight="826" background="none" math="0" shadow="0">
      <root>
        <mxCell id="0" />
        <mxCell id="1" parent="0" />
        <mxCell id="B_3WoU8tBTNOi6TcEDI7-41" value="React.JS" style="rounded=0;whiteSpace=wrap;html=1;" vertex="1" parent="1">
          <mxGeometry x="410" y="200" width="120" height="60" as="geometry" />
        </mxCell>
        <mxCell id="B_3WoU8tBTNOi6TcEDI7-42" value="Azure SQL Server Database" style="rounded=0;whiteSpace=wrap;html=1;" vertex="1" parent="1">
          <mxGeometry x="410" y="480" width="120" height="60" as="geometry" />
        </mxCell>
        <mxCell id="B_3WoU8tBTNOi6TcEDI7-43" value="Express (Node.js)" style="rounded=0;whiteSpace=wrap;html=1;" vertex="1" parent="1">
          <mxGeometry x="410" y="340" width="120" height="60" as="geometry" />
        </mxCell>
        <mxCell id="B_3WoU8tBTNOi6TcEDI7-49" value="" style="endArrow=classic;html=1;rounded=0;exitX=0.5;exitY=1;exitDx=0;exitDy=0;entryX=0.5;entryY=0;entryDx=0;entryDy=0;" edge="1" parent="1" source="B_3WoU8tBTNOi6TcEDI7-43" target="B_3WoU8tBTNOi6TcEDI7-42">
          <mxGeometry width="50" height="50" relative="1" as="geometry">
            <mxPoint x="670" y="510" as="sourcePoint" />
            <mxPoint x="720" y="460" as="targetPoint" />
          </mxGeometry>
        </mxCell>
        <mxCell id="B_3WoU8tBTNOi6TcEDI7-50" value="Calls via node module" style="edgeLabel;html=1;align=center;verticalAlign=middle;resizable=0;points=[];" vertex="1" connectable="0" parent="B_3WoU8tBTNOi6TcEDI7-49">
          <mxGeometry x="-0.15" y="-1" relative="1" as="geometry">
            <mxPoint as="offset" />
          </mxGeometry>
        </mxCell>
        <mxCell id="B_3WoU8tBTNOi6TcEDI7-51" value="" style="endArrow=classic;html=1;rounded=0;exitX=0.5;exitY=1;exitDx=0;exitDy=0;entryX=0.5;entryY=0;entryDx=0;entryDy=0;" edge="1" parent="1" source="B_3WoU8tBTNOi6TcEDI7-41" target="B_3WoU8tBTNOi6TcEDI7-43">
          <mxGeometry width="50" height="50" relative="1" as="geometry">
            <mxPoint x="670" y="310" as="sourcePoint" />
            <mxPoint x="720" y="260" as="targetPoint" />
          </mxGeometry>
        </mxCell>
        <mxCell id="B_3WoU8tBTNOi6TcEDI7-52" value="Calls via http" style="edgeLabel;html=1;align=center;verticalAlign=middle;resizable=0;points=[];" vertex="1" connectable="0" parent="B_3WoU8tBTNOi6TcEDI7-51">
          <mxGeometry x="-0.075" y="-2" relative="1" as="geometry">
            <mxPoint as="offset" />
          </mxGeometry>
        </mxCell>
        <mxCell id="B_3WoU8tBTNOi6TcEDI7-53" value="CSV Definitions Dictionary" style="rounded=0;whiteSpace=wrap;html=1;" vertex="1" parent="1">
          <mxGeometry x="670" y="340" width="120" height="60" as="geometry" />
        </mxCell>
        <mxCell id="B_3WoU8tBTNOi6TcEDI7-54" value="" style="endArrow=classic;html=1;rounded=0;exitX=0;exitY=0.5;exitDx=0;exitDy=0;entryX=1;entryY=0.5;entryDx=0;entryDy=0;" edge="1" parent="1" source="B_3WoU8tBTNOi6TcEDI7-53" target="B_3WoU8tBTNOi6TcEDI7-43">
          <mxGeometry width="50" height="50" relative="1" as="geometry">
            <mxPoint x="560" y="590" as="sourcePoint" />
            <mxPoint x="610" y="540" as="targetPoint" />
          </mxGeometry>
        </mxCell>
        <mxCell id="B_3WoU8tBTNOi6TcEDI7-55" value="reads via node module" style="edgeLabel;html=1;align=center;verticalAlign=middle;resizable=0;points=[];" vertex="1" connectable="0" parent="B_3WoU8tBTNOi6TcEDI7-54">
          <mxGeometry x="0.2667" y="3" relative="1" as="geometry">
            <mxPoint x="24" y="-13" as="offset" />
          </mxGeometry>
        </mxCell>
        <mxCell id="B_3WoU8tBTNOi6TcEDI7-56" value="Front End" style="text;html=1;align=center;verticalAlign=middle;whiteSpace=wrap;rounded=0;" vertex="1" parent="1">
          <mxGeometry x="310" y="215" width="60" height="30" as="geometry" />
        </mxCell>
        <mxCell id="B_3WoU8tBTNOi6TcEDI7-57" value="Back End" style="text;html=1;align=center;verticalAlign=middle;whiteSpace=wrap;rounded=0;" vertex="1" parent="1">
          <mxGeometry x="310" y="355" width="60" height="30" as="geometry" />
        </mxCell>
        <mxCell id="B_3WoU8tBTNOi6TcEDI7-58" value="Database Layer" style="text;html=1;align=center;verticalAlign=middle;whiteSpace=wrap;rounded=0;" vertex="1" parent="1">
          <mxGeometry x="310" y="490" width="60" height="30" as="geometry" />
        </mxCell>
      </root>
    </mxGraphModel>
  </diagram>
</mxfile>
